<?xml version="1.0" encoding="UTF-8"?>
<svg id="Illustration" xmlns="http://www.w3.org/2000/svg" viewBox="0 0 1830 1830">
  <defs>
    <style>
      .cls-1 {
        fill: #72799c;
      }

      .cls-2 {
        fill: #8b91ae;
      }

      .cls-3 {
        fill: #fff;
      }

      .cls-4 {
        fill: #617afd;
      }

      .cls-5 {
        fill: #1f2c37;
      }

      .cls-6 {
        fill: #d6d8e2;
      }

      .cls-7 {
        fill: #9197b2;
      }

      .cls-8 {
        fill: #364072;
      }

      .cls-9 {
        fill: #303a6e;
      }

      .cls-10 {
        fill: #b0b4c8;
      }

      .cls-11 {
        fill: #e8e9ef;
      }
    </style>
  </defs>
  <g id="Data_monetization" data-name="Data monetization">
    <circle class="cls-6" cx="915" cy="915" r="915"/>
    <g>
      <g>
        <path class="cls-2" d="M1297.85,631.66c-123.97,0-221.08-27.18-221.08-61.88V107.99c0-1.22.99-2.2,2.2-2.2s2.2.99,2.2,2.2v461.78c0,31.15,99.22,57.47,216.67,57.47s216.67-26.32,216.67-57.47V107.99c0-1.22.99-2.2,2.2-2.2s2.2.99,2.2,2.2v461.78c0,34.7-97.11,61.88-221.08,61.88Z"/>
        <path class="cls-2" d="M1297.85,169.78c-123.97,0-221.08-27.18-221.08-61.88s97.11-61.88,221.08-61.88,221.08,27.18,221.08,61.88-97.11,61.88-221.08,61.88ZM1297.85,50.43c-117.45,0-216.67,26.32-216.67,57.47s99.22,57.47,216.67,57.47,216.67-26.32,216.67-57.47-99.22-57.47-216.67-57.47Z"/>
        <path class="cls-10" d="M1470.24,103.44c0,20.8-87.05,37.67-172.38,37.67s-172.38-16.86-172.38-37.67,87.05-37.67,172.38-37.67,172.38,16.86,172.38,37.67Z"/>
        <path class="cls-2" d="M1297.85,323.74c-123.97,0-221.08-27.18-221.08-61.88,0-1.22.99-2.2,2.2-2.2s2.2.99,2.2,2.2c0,31.15,99.22,57.47,216.67,57.47s216.67-26.32,216.67-57.47c0-1.22.99-2.2,2.2-2.2s2.2.99,2.2,2.2c0,34.7-97.11,61.88-221.08,61.88Z"/>
        <path class="cls-2" d="M1297.85,477.7c-123.97,0-221.08-27.18-221.08-61.88,0-1.22.99-2.2,2.2-2.2s2.2.99,2.2,2.2c0,31.15,99.22,57.47,216.67,57.47s216.67-26.32,216.67-57.47c0-1.22.99-2.2,2.2-2.2s2.2.99,2.2,2.2c0,34.7-97.11,61.88-221.08,61.88Z"/>
      </g>
      <g>
        <path class="cls-10" d="M1348.8,182.43v501.08c0,35.76,106.33,64.76,237.5,64.76s237.5-28.99,237.5-64.76V182.43h-474.99Z"/>
        <path class="cls-3" d="M1586.3,750.47c-134.41,0-239.7-29.41-239.7-66.96V180.23h479.4v503.28c0,37.55-105.29,66.96-239.7,66.96ZM1351.01,184.64v498.87c0,33.91,107.75,62.55,235.29,62.55s235.29-28.65,235.29-62.55V184.64h-470.58Z"/>
        <ellipse class="cls-3" cx="1586.3" cy="182.33" rx="237.5" ry="64.76"/>
        <path class="cls-6" d="M1773.36,177.49c0,22.57-94.46,40.87-187.06,40.87s-187.06-18.3-187.06-40.87,94.46-40.87,187.06-40.87,187.06,18.3,187.06,40.87Z"/>
        <path class="cls-3" d="M1586.3,416.35c-134.41,0-239.7-29.41-239.7-66.96,0-1.22.99-2.2,2.2-2.2s2.2.99,2.2,2.2c0,33.91,107.75,62.55,235.29,62.55s235.29-28.65,235.29-62.55c0-1.22.99-2.2,2.2-2.2s2.2.99,2.2,2.2c0,37.55-105.29,66.96-239.7,66.96Z"/>
        <path class="cls-3" d="M1586.3,583.41c-134.41,0-239.7-29.41-239.7-66.96,0-1.22.99-2.2,2.2-2.2s2.2.99,2.2,2.2c0,33.91,107.75,62.55,235.29,62.55s235.29-28.65,235.29-62.55c0-1.22.99-2.2,2.2-2.2s2.2.99,2.2,2.2c0,37.55-105.29,66.96-239.7,66.96Z"/>
      </g>
    </g>
    <g>
      <g>
        <path class="cls-10" d="M12.84,380.04c4.79-22.96,27.28-37.68,50.24-32.89,22.96,4.79,96.68,63.55,96.68,63.55,0,0-91.07,24.37-114.03,19.58-22.96-4.79-37.68-27.28-32.89-50.24Z"/>
        <path class="cls-11" d="M454.35,474.39c-.15,0-.3-.02-.45-.05L47.87,389.6c-1.19-.25-1.96-1.42-1.71-2.61.25-1.19,1.42-1.95,2.61-1.71l406.02,84.74c1.19.25,1.96,1.42,1.71,2.61-.22,1.04-1.13,1.75-2.16,1.75Z"/>
        <path class="cls-10" d="M89.01,513.54c-7.24-17.93,1.43-38.34,19.36-45.58,17.93-7.24,95.41-.76,95.41-.76,0,0-51.26,58.46-69.19,65.7-17.93,7.24-38.34-1.43-45.58-19.36Z"/>
        <path class="cls-11" d="M119.84,503.29c-.87,0-1.7-.52-2.05-1.38-.46-1.13.09-2.41,1.22-2.87l161.14-65.07c1.13-.45,2.41.09,2.87,1.22.46,1.13-.09,2.41-1.22,2.87l-161.14,65.07c-.27.11-.55.16-.82.16Z"/>
        <path class="cls-10" d="M227.25,357.04c14.69,14.98,94.55,42.17,94.55,42.17,0,0-25.6-80.38-40.29-95.36-14.69-14.98-38.74-15.22-53.73-.53-14.98,14.69-15.22,38.74-.53,53.73Z"/>
        <path class="cls-11" d="M376.39,457.1c-.57,0-1.14-.22-1.57-.66l-121.66-124.09c-.85-.87-.84-2.27.03-3.12.87-.85,2.26-.84,3.12.03l121.66,124.09c.85.87.84,2.27-.03,3.12-.43.42-.99.63-1.54.63Z"/>
      </g>
      <g>
        <path class="cls-10" d="M422.74,45.63c5.68,28.26-25.12,139.97-25.12,139.97,0,0-71.54-91.16-77.22-119.42-5.68-28.26,12.63-55.77,40.89-61.44,28.26-5.68,55.77,12.63,61.44,40.89Z"/>
        <path class="cls-11" d="M470.46,550.45c-1.03,0-1.95-.72-2.16-1.77L367.91,48.86c-.24-1.19.53-2.36,1.73-2.6,1.2-.24,2.36.53,2.6,1.73l100.39,499.82c.24,1.19-.53,2.36-1.73,2.6-.15.03-.29.04-.44.04Z"/>
        <path class="cls-10" d="M308.09,155.19c16.85,16.77,46.96,107.46,46.96,107.46,0,0-90.84-29.69-107.68-46.45-16.85-16.77-16.91-44.02-.14-60.87,16.77-16.85,44.02-16.91,60.87-.14Z"/>
        <path class="cls-11" d="M427.57,337.04c-.56,0-1.13-.21-1.56-.64l-151.39-150.68c-.86-.86-.87-2.26,0-3.12.86-.86,2.26-.86,3.12,0l151.39,150.68c.86.86.87,2.26,0,3.12-.43.43-1,.65-1.56.65Z"/>
        <path class="cls-10" d="M490.88,235.95c-9.84,23.84-1.98,127.23-1.98,127.23,0,0,78.48-67.77,88.31-91.61,9.84-23.84-1.52-51.14-25.36-60.98-23.84-9.84-51.14,1.52-60.98,25.36Z"/>
        <path class="cls-11" d="M452.35,454c-.28,0-.57-.05-.84-.17-1.13-.46-1.66-1.75-1.2-2.88l81.46-197.45c.47-1.12,1.75-1.66,2.88-1.2,1.13.46,1.66,1.75,1.2,2.88l-81.46,197.45c-.35.85-1.17,1.37-2.04,1.37Z"/>
      </g>
    </g>
    <g>
      <g>
        <rect class="cls-2" x="197.85" y="286.36" width="1409.24" height="999.31" transform="translate(1804.93 1572.03) rotate(180)"/>
        <rect class="cls-11" x="489.85" y="82.78" width="825.23" height="1320.82" transform="translate(1645.66 -159.28) rotate(90)"/>
        <path class="cls-2" d="M754.12,1306.84h41.72c0,31.3,25.37,56.67,56.67,56.67h99.91c31.3,0,56.67-25.37,56.67-56.67h41.72l41.72,221.72v18.54h-380.13v-18.54l41.72-221.72Z"/>
        <path class="cls-2" d="M1092.53,1572.49h-380.13c-1.22,0-2.2-.99-2.2-2.2s.99-2.2,2.2-2.2h380.13c1.22,0,2.2.99,2.2,2.2s-.99,2.2-2.2,2.2Z"/>
      </g>
      <g>
        <rect class="cls-10" x="1022.33" y="406.83" width="229.36" height="196.42"/>
        <rect class="cls-3" x="994.93" y="379.42" width="229.36" height="196.42"/>
        <g>
          <path class="cls-5" d="M1498.24,408.57h-205.26c-1.22,0-2.2-.99-2.2-2.2s.99-2.2,2.2-2.2h205.26c1.22,0,2.2.99,2.2,2.2s-.99,2.2-2.2,2.2Z"/>
          <path class="cls-5" d="M1454.64,450.64h-161.66c-1.22,0-2.2-.99-2.2-2.2s.99-2.2,2.2-2.2h161.66c1.22,0,2.2.99,2.2,2.2s-.99,2.2-2.2,2.2Z"/>
          <path class="cls-5" d="M1481.89,488.75h-188.91c-1.22,0-2.2-.99-2.2-2.2s.99-2.2,2.2-2.2h188.91c1.22,0,2.2.99,2.2,2.2s-.99,2.2-2.2,2.2Z"/>
          <path class="cls-5" d="M1422.94,528.84h-129.96c-1.22,0-2.2-.99-2.2-2.2s.99-2.2,2.2-2.2h129.96c1.22,0,2.2.99,2.2,2.2s-.99,2.2-2.2,2.2Z"/>
        </g>
      </g>
      <g>
        <path class="cls-7" d="M1087.01,438.72c3.6-1.8,7.33-3.05,11.11-3.79l-1.43-20.42c-6.38.98-12.71,2.96-18.79,5.99-14.75,7.38-25.41,19.74-30.95,34.03l19.63,5.78c3.92-9.06,10.93-16.84,20.42-21.59Z"/>
        <path class="cls-7" d="M1065.46,492.15c-2.52-7.09-3.07-14.5-1.9-21.58l-19.63-5.78c-2.46,11.91-1.55,24.59,3.22,36.52l18.31-9.16Z"/>
        <path class="cls-9" d="M1165.79,453.94l-18.31,9.16c7.24,20.39-1.71,43.52-21.55,53.44-19.83,9.92-43.71,3.21-55.68-14.81l-18.31,9.16c17.08,28.05,53.21,38.82,83.1,23.87,29.89-14.95,42.95-50.32,30.75-80.81Z"/>
        <path class="cls-7" d="M1108.79,434.19c13.41.74,26.15,7.67,33.9,19.33l18.31-9.16c-11.67-19.17-32.24-30.27-53.64-30.6l1.43,20.42Z"/>
      </g>
      <g>
        <path class="cls-2" d="M744.51,1107.78h-457.81c-1.22,0-2.2-.99-2.2-2.2v-345.21c0-1.22.99-2.2,2.2-2.2s2.2.99,2.2,2.2v343.01h455.61c1.22,0,2.2.99,2.2,2.2s-.99,2.2-2.2,2.2Z"/>
        <rect class="cls-2" x="328.55" y="872.86" width="67.45" height="184.94"/>
        <rect class="cls-2" x="439.85" y="836.02" width="67.45" height="221.78"/>
        <rect class="cls-2" x="551.16" y="700.17" width="67.45" height="357.63"/>
        <rect class="cls-2" x="662.46" y="756.25" width="67.45" height="301.55"/>
        <rect class="cls-2" x="773.92" y="608.29" width="67.45" height="449.51"/>
        <rect class="cls-2" x="885.23" y="697.12" width="67.45" height="360.68"/>
        <rect class="cls-2" x="996.53" y="825.84" width="67.45" height="231.96"/>
        <rect class="cls-2" x="1107.84" y="743.02" width="67.45" height="314.78"/>
        <rect class="cls-2" x="1219.22" y="792.77" width="67.45" height="265.03"/>
        <rect class="cls-2" x="1330.52" y="663.65" width="67.45" height="394.16"/>
        <rect class="cls-2" x="1441.98" y="872.87" width="67.45" height="184.94"/>
      </g>
      <g>
        <path class="cls-7" d="M832.11,408.63h-262.23c-1.22,0-2.2-.99-2.2-2.2s.99-2.2,2.2-2.2h262.23c1.22,0,2.2.99,2.2,2.2s-.99,2.2-2.2,2.2Z"/>
        <path class="cls-7" d="M476.09,408.63h-168.21c-1.22,0-2.2-.99-2.2-2.2s.99-2.2,2.2-2.2h168.21c1.22,0,2.2.99,2.2,2.2s-.99,2.2-2.2,2.2Z"/>
        <path class="cls-7" d="M832.11,463.09h-142c-1.22,0-2.2-.99-2.2-2.2s.99-2.2,2.2-2.2h142c1.22,0,2.2.99,2.2,2.2s-.99,2.2-2.2,2.2Z"/>
        <path class="cls-7" d="M648.02,463.09h-340.14c-1.22,0-2.2-.99-2.2-2.2s.99-2.2,2.2-2.2h340.14c1.22,0,2.2.99,2.2,2.2s-.99,2.2-2.2,2.2Z"/>
        <path class="cls-7" d="M832.11,517.54h-100.35c-1.22,0-2.2-.99-2.2-2.2s.99-2.2,2.2-2.2h100.35c1.22,0,2.2.99,2.2,2.2s-.99,2.2-2.2,2.2Z"/>
        <path class="cls-7" d="M690.11,517.54h-281.12c-1.22,0-2.2-.99-2.2-2.2s.99-2.2,2.2-2.2h281.12c1.22,0,2.2.99,2.2,2.2s-.99,2.2-2.2,2.2Z"/>
        <path class="cls-7" d="M378.17,517.54h-70.29c-1.22,0-2.2-.99-2.2-2.2s.99-2.2,2.2-2.2h70.29c1.22,0,2.2.99,2.2,2.2s-.99,2.2-2.2,2.2Z"/>
      </g>
    </g>
    <g>
      <g>
        <ellipse class="cls-1" cx="1597.73" cy="1598.4" rx="131.6" ry="41.67"/>
        <rect class="cls-1" x="1466.14" y="1556.88" width="263.2" height="42.93"/>
        <ellipse class="cls-7" cx="1597.73" cy="1557.7" rx="131.6" ry="41.67"/>
        <path class="cls-3" d="M1613.24,1601.57c-75.03,0-133.81-19.27-133.81-43.87s58.77-43.88,133.81-43.88,133.8,19.27,133.8,43.88-58.77,43.87-133.8,43.87ZM1613.24,1518.23c-70.14,0-129.4,18.07-129.4,39.47s59.26,39.46,129.4,39.46,129.39-18.07,129.39-39.46-59.25-39.47-129.39-39.47Z"/>
      </g>
      <g>
        <ellipse class="cls-1" cx="1607.2" cy="1530.57" rx="131.6" ry="41.67"/>
        <rect class="cls-1" x="1475.6" y="1489.05" width="263.2" height="42.93"/>
        <ellipse class="cls-7" cx="1607.2" cy="1489.87" rx="131.6" ry="41.67"/>
        <path class="cls-3" d="M1622.7,1533.75c-75.03,0-133.8-19.27-133.8-43.88s58.77-43.87,133.8-43.87,133.8,19.27,133.8,43.87-58.77,43.88-133.8,43.88ZM1622.7,1450.4c-70.14,0-129.4,18.07-129.4,39.47s59.26,39.47,129.4,39.47,129.39-18.07,129.39-39.47-59.25-39.47-129.39-39.47Z"/>
      </g>
      <g>
        <ellipse class="cls-1" cx="1361.24" cy="1616.14" rx="131.6" ry="41.67"/>
        <rect class="cls-1" x="1229.64" y="1574.63" width="263.2" height="42.93"/>
        <ellipse class="cls-7" cx="1361.24" cy="1575.44" rx="131.6" ry="41.67"/>
        <path class="cls-3" d="M1376.74,1619.32c-75.03,0-133.8-19.27-133.8-43.88s58.77-43.87,133.8-43.87,133.8,19.27,133.8,43.87-58.77,43.88-133.8,43.88ZM1376.74,1535.98c-70.14,0-129.39,18.07-129.39,39.47s59.25,39.47,129.39,39.47,129.39-18.07,129.39-39.47-59.25-39.47-129.39-39.47Z"/>
      </g>
      <g>
        <ellipse class="cls-1" cx="1388.37" cy="1548.08" rx="131.6" ry="41.56"/>
        <rect class="cls-1" x="1256.77" y="1506.69" width="263.2" height="42.81"/>
        <ellipse class="cls-7" cx="1388.37" cy="1507.5" rx="131.6" ry="41.56"/>
        <path class="cls-3" d="M1403.88,1551.26c-75.03,0-133.81-19.22-133.81-43.76s58.77-43.76,133.81-43.76,133.8,19.22,133.8,43.76-58.77,43.76-133.8,43.76ZM1403.88,1468.15c-70.14,0-129.4,18.02-129.4,39.35s59.26,39.35,129.4,39.35,129.39-18.02,129.39-39.35-59.25-39.35-129.39-39.35Z"/>
      </g>
      <g>
        <ellipse class="cls-1" cx="1633.07" cy="1462.74" rx="131.6" ry="41.67"/>
        <rect class="cls-1" x="1501.47" y="1421.23" width="263.2" height="42.93"/>
        <ellipse class="cls-7" cx="1633.07" cy="1422.04" rx="131.6" ry="41.67"/>
        <path class="cls-3" d="M1648.57,1465.92c-75.03,0-133.8-19.27-133.8-43.88s58.77-43.87,133.8-43.87,133.8,19.27,133.8,43.87-58.77,43.88-133.8,43.88ZM1648.57,1382.58c-70.14,0-129.4,18.07-129.4,39.46s59.26,39.47,129.4,39.47,129.39-18.07,129.39-39.47-59.25-39.46-129.39-39.46Z"/>
      </g>
      <g>
        <ellipse class="cls-1" cx="1605.04" cy="1402.42" rx="131.6" ry="41.67"/>
        <rect class="cls-1" x="1473.44" y="1360.91" width="263.2" height="42.93"/>
        <ellipse class="cls-7" cx="1605.04" cy="1361.72" rx="131.6" ry="41.67"/>
        <path class="cls-3" d="M1620.54,1405.6c-75.03,0-133.8-19.27-133.8-43.88s58.77-43.87,133.8-43.87,133.8,19.27,133.8,43.87-58.77,43.88-133.8,43.88ZM1620.54,1322.26c-70.14,0-129.39,18.07-129.39,39.47s59.25,39.47,129.39,39.47,129.4-18.07,129.4-39.47-59.26-39.47-129.4-39.47Z"/>
      </g>
      <g>
        <ellipse class="cls-1" cx="1307.44" cy="1427.45" rx="41.67" ry="131.6" transform="translate(-626 1333.47) rotate(-44.73)"/>
        <rect class="cls-1" x="1190.08" y="1391.88" width="263.2" height="42.93" transform="translate(1395.61 -520.29) rotate(45.27)"/>
        <ellipse class="cls-7" cx="1336.35" cy="1398.81" rx="41.67" ry="131.6" transform="translate(-597.47 1345.53) rotate(-44.73)"/>
        <path class="cls-3" d="M1426.83,1509.97c-24.72,0-68.45-26.58-110.74-69.27-52.8-53.3-80.48-108.62-63-125.94,17.49-17.31,72.53,10.88,125.34,64.18,52.8,53.3,80.48,108.62,63,125.94h0c-3.48,3.45-8.45,5.09-14.6,5.09ZM1267.8,1313.95c-4.95,0-8.89,1.27-11.6,3.95-15.2,15.06,13.66,69.87,63.02,119.7,49.36,49.83,103.9,79.21,119.1,64.15,15.2-15.06-13.66-69.87-63.02-119.7-40.58-40.96-84.66-68.1-107.5-68.1ZM1439.88,1503.32h.02-.02Z"/>
      </g>
      <g>
        <ellipse class="cls-1" cx="1619.45" cy="1102.52" rx="119.59" ry="37.87" transform="translate(-339.41 1134.84) rotate(-35.19)"/>
        <rect class="cls-1" x="1489.36" y="1068.13" width="239.18" height="39.02" transform="translate(-332.75 1126.07) rotate(-35.19)"/>
        <ellipse class="cls-7" cx="1598.14" cy="1072.3" rx="119.59" ry="37.87" transform="translate(-325.88 1117.04) rotate(-35.19)"/>
        <path class="cls-3" d="M1529.46,1141.87c-9.03,0-15.75-2.42-19.34-7.5-12.95-18.36,20.62-63.58,76.44-102.94,26.28-18.54,53.31-32.73,76.1-39.97,23.57-7.49,40.1-6.59,46.53,2.53,6.43,9.12,1.73,24.98-13.24,44.67-14.47,19.04-36.91,39.73-63.2,58.27-40.36,28.46-79.7,44.94-103.29,44.94ZM1689.93,990.81c-6.96,0-15.74,1.61-25.94,4.85-22.37,7.11-48.97,21.09-74.89,39.37-57.38,40.47-85.3,82.72-75.38,96.8,9.93,14.07,59.1,1.96,116.48-38.51,25.92-18.28,48.03-38.64,62.23-57.33,13.51-17.77,18.3-32.16,13.15-39.46h0c-2.69-3.81-8.09-5.72-15.65-5.72Z"/>
      </g>
      <g>
        <ellipse class="cls-1" cx="1617.93" cy="915.96" rx="119.23" ry="37.76" transform="translate(-114.28 240.58) rotate(-8.21)"/>
        <rect class="cls-1" x="1496.1" y="878.53" width="238.47" height="38.9" transform="translate(-111.74 240.02) rotate(-8.21)"/>
        <ellipse class="cls-7" cx="1612.66" cy="879.47" rx="119.23" ry="37.76" transform="translate(-109.12 239.45) rotate(-8.21)"/>
        <path class="cls-3" d="M1582.47,920.77c-43.02,0-73.74-9.6-76.11-25.96-1.59-11.01,9.76-22.99,31.97-33.71,21.47-10.37,50.77-18.61,82.51-23.19,31.73-4.58,62.17-4.97,85.7-1.1,24.34,4.01,38.61,12.28,40.2,23.29,1.59,11.01-9.76,22.98-31.97,33.71-21.47,10.37-50.77,18.61-82.51,23.19-17.67,2.55-34.51,3.76-49.8,3.76ZM1670.58,838.57c-15.37,0-32.03,1.24-49.1,3.7-31.3,4.52-60.15,12.62-81.22,22.8-20.04,9.68-30.8,20.29-29.53,29.11,2.45,16.99,51.62,28.47,120.91,18.46,31.3-4.52,60.15-12.61,81.22-22.79,20.04-9.68,30.8-20.29,29.53-29.11h0c-1.27-8.82-14.6-15.96-36.55-19.57-10.5-1.73-22.43-2.59-35.25-2.59Z"/>
      </g>
      <g>
        <ellipse class="cls-1" cx="1633.37" cy="1333.07" rx="131.6" ry="41.67"/>
        <rect class="cls-1" x="1501.77" y="1291.56" width="263.2" height="42.93"/>
        <ellipse class="cls-7" cx="1633.37" cy="1292.37" rx="131.6" ry="41.67"/>
        <path class="cls-3" d="M1648.88,1336.25c-75.03,0-133.81-19.27-133.81-43.88s58.77-43.87,133.81-43.87,133.8,19.27,133.8,43.87-58.77,43.88-133.8,43.88ZM1648.88,1252.91c-70.14,0-129.4,18.07-129.4,39.47s59.26,39.47,129.4,39.47,129.39-18.07,129.39-39.47-59.25-39.47-129.39-39.47Z"/>
      </g>
      <g>
        <ellipse class="cls-1" cx="1676.01" cy="1272.75" rx="131.6" ry="41.67"/>
        <rect class="cls-1" x="1544.41" y="1231.24" width="263.2" height="42.93"/>
        <ellipse class="cls-7" cx="1676.01" cy="1232.05" rx="131.6" ry="41.67"/>
        <path class="cls-3" d="M1691.51,1275.93c-75.03,0-133.8-19.27-133.8-43.87s58.77-43.87,133.8-43.87,133.8,19.27,133.8,43.87-58.77,43.87-133.8,43.87ZM1691.51,1192.59c-70.14,0-129.4,18.07-129.4,39.46s59.26,39.47,129.4,39.47,129.39-18.07,129.39-39.47-59.25-39.46-129.39-39.46Z"/>
      </g>
    </g>
    <g>
      <g>
        <path class="cls-4" d="M532.26,920.53c-9.96,0-20.56-8.97-25.37-22.41-5.68-15.87-1.15-32.06,10.1-36.08,11.25-4.02,25.01,5.62,30.69,21.49h0c5.68,15.87,1.15,32.06-10.1,36.08-1.73.62-3.51.91-5.32.91ZM522.43,865.52c-1.35,0-2.68.22-3.96.68-8.95,3.2-12.29,16.86-7.43,30.44,4.86,13.58,16.1,22.03,25.05,18.83,8.95-3.2,12.29-16.86,7.43-30.44h0c-4.16-11.64-13.01-19.51-21.09-19.51Z"/>
        <path class="cls-8" d="M519.48,888.25c-14.86-41.67-27.19-64.65-51.63-76.1-32.84-15.39-68.03,3.48-71.68,5.5-2.33,1.29-36.51,17.68-42.2,55.4-5.62,37.25,8.68,76.17,38.44,98.71v83.22c0,26.72,21.66,48.38,48.38,48.38h6.05c26.72,0,48.38-21.66,48.38-48.38v-55.59c16.95-1.42,30.36-6.33,35.73-14.91,9.63-15.38,6.02-47.15-11.48-96.22Z"/>
        <path class="cls-4" d="M496.65,903.77c-.77,0-1.52-.41-1.93-1.13-.6-1.06-.22-2.41.85-3l44.52-24.92c1.06-.59,2.41-.22,3,.85.6,1.06.22,2.41-.85,3l-44.52,24.92c-.34.19-.71.28-1.07.28Z"/>
        <path class="cls-4" d="M495.99,1000.28c-1.19,0-2.17-.95-2.2-2.15l-.54-20.35c-.03-1.22.93-2.23,2.15-2.26,1.16-.06,2.23.93,2.26,2.15l.54,20.35c.03,1.22-.93,2.23-2.14,2.26-.02,0-.04,0-.06,0Z"/>
        <path class="cls-4" d="M488.37,925.34c-.6,0-1.19-.24-1.63-.72-2.32-2.53-4.38-4.87-6.53-7.31-1.76-1.99-3.57-4.04-5.61-6.31-.82-.9-.74-2.3.16-3.11.9-.82,2.3-.74,3.11.16,2.06,2.28,3.88,4.34,5.65,6.35,2.13,2.41,4.18,4.74,6.48,7.25.82.9.76,2.29-.14,3.12-.42.39-.96.58-1.49.58Z"/>
        <path class="cls-4" d="M486.14,794.8c3.66,2.6,11.23,8.09,16.66,18.11,19.35,35.68-13.78,81.83-15.93,84.75,3.29-5.98,9.48-19.16,9.42-36.94-.07-18.31-6.73-27.72-10.14-33.64.4,9.85-.35,24.47-11.59,42.33-18.93,30.11-45.28,44.32-67.52,51.14-20.35,6.24-55.98,7.54-69.38-12.05-20.04-29.31.92-75.87,29.7-100.66,33.75-29.06,87.66-35.12,118.79-13.04Z"/>
        <circle class="cls-4" cx="316.69" cy="834.04" r="30.05"/>
        <path class="cls-4" d="M309.77,874.22c-9.47,0-17.75-3.93-21.62-11.27-3.1-5.88-2.95-12.98.43-19.98,3.27-6.78,9.21-12.69,16.72-16.65,15.74-8.29,33.64-5.34,39.92,6.57h0c3.1,5.88,2.95,12.98-.43,19.98-3.27,6.78-9.21,12.69-16.72,16.65-6.04,3.18-12.4,4.71-18.3,4.71ZM323.7,825.97c-5.21,0-10.9,1.38-16.34,4.24-6.69,3.52-11.95,8.73-14.81,14.67-2.76,5.71-2.93,11.4-.5,16.01,5.14,9.76,20.38,11.88,33.96,4.72,6.69-3.52,11.95-8.73,14.81-14.67,2.75-5.71,2.93-11.4.5-16.01h0c-3.09-5.86-9.81-8.96-17.62-8.96Z"/>
        <path class="cls-4" d="M470.09,940.49c-.4,0-.79-.11-1.16-.33-12.38-7.63-18.57-21.59-15.06-33.95,2.53-8.89,10.49-18.72,22.01-19.3,9.08-.45,18.03,4.89,22.7,13.62.57,1.07.17,2.41-.9,2.98-1.07.57-2.41.17-2.98-.9-3.88-7.24-11.17-11.66-18.6-11.3-9.35.47-15.88,8.68-17.99,16.1-2.98,10.47,2.42,22.39,13.13,28.99,1.04.64,1.36,2,.72,3.03-.42.67-1.14,1.05-1.88,1.05Z"/>
      </g>
      <g>
        <path class="cls-4" d="M384.07,1734.68l46.97,91.65h289.97l-138.57-315.19-364.01-73.36c-108.77,88.38-75.68,388.56-75.68,388.56h241.32v-91.65Z"/>
        <path class="cls-4" d="M376.57,1727.03c-.82,0-1.61-.46-1.99-1.25l-22.5-46.87c-.53-1.1-.06-2.41,1.03-2.94,1.09-.53,2.41-.06,2.94,1.03l22.5,46.87c.53,1.1.06,2.41-1.03,2.94-.31.15-.63.22-.95.22Z"/>
      </g>
      <g>
        <g>
          <path class="cls-8" d="M697.57,1152.49c170.92,52.37,258.35,137.6,225.59,199.39-21.1,39.79-121.03,48.3-258.11,14.35,8.27-57.65,21.02-144.2,32.52-213.75Z"/>
          <g>
            <path class="cls-8" d="M805.79,1217.43s84.99-126.74,134.78-190.74c52.29-67.22,139.28-158.84,151.94-146.51,7.21,7.03-2.07,21.97-29.53,60.28,3.33-.55,13.24-.29,18.86,7.33,8.32,11.27,1.63,21.05,1.38,22.17,1.11-.28,13.18-2.93,20.02,3.67,7.71,7.43,8.38,16.7,5.42,24.56,2.78-.6,13.27-1.78,19.66,4.75,6.57,6.72,8.56,18.51,2.42,26.17-11.26,14.04-45.53,55.13-59.77,77.16-28.02,43.35-106.86,210.65-163.92,262.6-26.08-61.48-101.26-151.43-101.26-151.43Z"/>
            <g>
              <path class="cls-4" d="M1110.84,1040.57c-.58,0-1.15-.22-1.58-.67l-10.58-10.94c-.85-.88-.82-2.27.05-3.12.88-.85,2.27-.82,3.12.05l10.58,10.94c.85.88.82,2.27-.05,3.12-.43.41-.98.62-1.53.62Z"/>
              <path class="cls-4" d="M1084.85,1014.65c-.6,0-1.2-.24-1.63-.72l-11.56-12.74c-.82-.9-.75-2.3.15-3.11.9-.82,2.3-.75,3.11.15l11.56,12.74c.82.9.75,2.3-.15,3.11-.42.38-.95.57-1.48.57Z"/>
              <path class="cls-4" d="M1059.42,985.56c-.57,0-1.15-.22-1.58-.67-2-2.06-3.78-3.93-5.57-5.81-1.75-1.83-3.5-3.67-5.45-5.68-.85-.88-.82-2.27.05-3.12.87-.85,2.27-.83,3.12.05,1.96,2.03,3.72,3.87,5.47,5.71,1.78,1.87,3.56,3.73,5.55,5.78.85.87.83,2.27-.05,3.12-.43.41-.98.62-1.54.62Z"/>
              <path class="cls-4" d="M1036.22,963.67c-.52,0-1.05-.18-1.47-.56l-11.27-10.06c-.91-.81-.99-2.2-.18-3.11.81-.91,2.2-.99,3.11-.18l11.27,10.06c.91.81.99,2.2.18,3.11-.43.49-1.04.74-1.65.74Z"/>
            </g>
          </g>
        </g>
        <g>
          <path class="cls-8" d="M59.45,1449.1c161.4,33.1,265.81,57.65,301.29,64.47,3.72.71,10.27,2.01,18.92,1.31,32.06-2.57,41.58-28.25,74.05-46.33,36.85-20.51,69.22-11.2,71.27-21.77,1.43-7.35-9.79-14.3-35.97-18.99,0,0,0,0,0,0,20.3,1.28,47.91,1.8,48.58-9.42.08-13-32.28-17.43-51.99-19.15,23.86,2.09,37.17-3.94,35.98-10.29-1.86-10-19.99-15.92-51.63-17.45h0c22.14-5.05,26.76-9.57,24.35-14.93-4.41-9.78-30.45-10.55-53.56-7.71-26.03,3.21-45.1,14.72-56.95,22.27,0,0,0,0-.01,0-110.64-34.9-183.96-57.31-272.74-87.32-18.16-6.14-51.59,165.31-51.59,165.31Z"/>
          <path class="cls-8" d="M149.98,1107.45C-30.99,1248.13-14.12,1420.62,55.34,1447.92c39.36,15.47,141.39-75.05,230.33-228.91-49.97-36.47-74.13-69-135.69-111.56Z"/>
        </g>
        <g>
          <path class="cls-5" d="M26.58,1204.84s121.87-180.82,402.5-150.59c172.69,18.61,381.23,138.71,381.23,138.71l-71.59,218.83-71.37-21.19-23.46,175.76-514.98-87.69,21.98-145.39-124.32-128.44Z"/>
          <path class="cls-4" d="M667.35,1392.81c-.26,0-.52-.05-.78-.14l-43.29-16.39c-1.14-.43-1.71-1.7-1.28-2.84.43-1.14,1.71-1.71,2.84-1.28l43.29,16.39c1.14.43,1.71,1.7,1.28,2.84-.33.88-1.17,1.43-2.06,1.43Z"/>
        </g>
      </g>
    </g>
  </g>
</svg>